<?xml version="1.0" encoding="UTF-8"?>
<svg width="14px" height="20px" viewBox="0 0 14 20" version="1.1" xmlns="http://www.w3.org/2000/svg" xmlns:xlink="http://www.w3.org/1999/xlink">
    <!-- Generator: Sketch 50.2 (55047) - http://www.bohemiancoding.com/sketch -->
    <title>Page 1</title>
    <desc>Created with Sketch.</desc>
    <defs></defs>
    <g id="Symbols" stroke="none" stroke-width="1" fill="none" fill-rule="evenodd">
        <g id="Header" transform="translate(-1064.000000, -60.000000)" fill="#FFFFFF">
            <g id="Nav">
                <g transform="translate(357.000000, 38.000000)">
                    <g id="Right" transform="translate(518.000000, 0.000000)">
                        <g id="Group-4-Copy" transform="translate(157.000000, 0.000000)">
                            <path d="M38.9953052,31.4835681 C39.6838851,31.4835681 40.270732,31.2410051 40.755867,30.755867 C41.2410051,30.270732 41.4835681,29.6838851 41.4835681,28.9953052 C41.4835681,28.3067253 41.2410051,27.7198783 40.755867,27.2347433 C40.270732,26.7496053 39.6838851,26.5070423 38.9953052,26.5070423 C38.3067253,26.5070423 37.7198783,26.7496053 37.2347433,27.2347433 C36.7496053,27.7198783 36.5070423,28.3067253 36.5070423,28.9953052 C36.5070423,29.6838851 36.7496053,30.270732 37.2347433,30.755867 C37.7198783,31.2410051 38.3067253,31.4835681 38.9953052,31.4835681 Z M38.9953052,22 C40.9358483,22 42.5868469,22.6807437 43.9483553,24.042255 C45.3098667,25.4037634 45.9906103,27.0547621 45.9906103,28.9953052 C45.9906103,29.9655752 45.7480473,31.0766753 45.2629093,32.3286385 C44.7777743,33.5806017 44.1909273,34.7542986 43.5023474,35.8497653 C42.8137675,36.9452319 42.1330238,37.9702625 41.4600954,38.9248811 C40.7871639,39.8795039 40.2159654,40.6384949 39.7464789,41.2018779 L38.9953052,42 C38.8075117,41.7809066 38.5571215,41.4913947 38.2441315,41.1314554 C37.9311414,40.7715161 37.3677671,40.0516486 36.5539906,38.9718325 C35.7402141,37.8920143 35.0281735,36.843511 34.4178404,35.8262896 C33.8075087,34.8090712 33.2519587,33.6588469 32.7511737,32.3755869 C32.2503887,31.0923268 32,29.9655752 32,28.9953052 C32,27.0547621 32.6807443,25.4037634 34.0422535,24.042255 C35.4037634,22.6807437 37.0547621,22 38.9953052,22 Z" id="Page-1"></path>
                        </g>
                    </g>
                </g>
            </g>
        </g>
    </g>
</svg>